<?xml version="1.0" standalone="no"?>
<!DOCTYPE svg PUBLIC "-//W3C//DTD SVG 20010904//EN"
 "http://www.w3.org/TR/2001/REC-SVG-20010904/DTD/svg10.dtd">
<svg version="1.0" xmlns="http://www.w3.org/2000/svg"
 width="1024.000000pt" height="1024.000000pt" viewBox="0 0 1024.000000 1024.000000"
 preserveAspectRatio="xMidYMid meet">
<metadata>
Created by potrace 1.11, written by Peter Selinger 2001-2013
</metadata>
<g transform="translate(0.000000,1024.000000) scale(0.100000,-0.100000)"
fill="#000000" stroke="none">
<path d="M4623 9167 c-271 -271 -493 -495 -493 -498 0 -2 138 -4 308 -4 169 0
317 -1 328 -3 l22 -4 0 -1364 c0 -750 -2 -1364 -3 -1364 -2 0 -438 435 -969
966 l-966 966 234 234 234 234 -81 1 c-409 2 -1319 0 -1323 -4 -6 -5 -6 -1388
-1 -1394 2 -2 108 100 235 227 l230 230 954 -953 c524 -525 959 -961 966 -969
11 -14 -118 -16 -1355 -14 l-1367 1 0 328 c0 180 -3 327 -6 327 -3 0 -227
-223 -499 -495 l-495 -495 495 -495 c272 -272 496 -495 499 -495 3 0 5 138 5
307 0 170 1 318 3 329 l4 22 1364 0 c750 0 1364 -2 1364 -3 0 -2 -435 -438
-966 -970 l-967 -966 -233 235 -234 234 0 -126 c-2 -708 0 -1276 4 -1280 6 -5
1386 -5 1392 1 2 2 -99 108 -226 235 l-230 230 966 966 c531 531 967 966 969
966 1 0 3 -614 3 -1364 0 -1021 -3 -1366 -11 -1368 -7 -2 -155 -4 -329 -3
-175 0 -318 -2 -318 -5 0 -3 223 -227 495 -499 l495 -494 500 499 500 500
-330 -1 c-285 0 -331 2 -334 15 -5 17 -6 2720 -1 2720 2 0 438 -435 969 -966
l967 -966 -235 -234 c-221 -221 -232 -234 -203 -235 174 -2 1369 0 1373 3 5 6
6 1389 1 1395 -3 2 -108 -100 -234 -227 l-230 -230 -967 965 c-531 532 -966
968 -966 970 0 1 615 2 1367 1 l1367 -1 0 -328 c0 -180 3 -327 6 -327 3 0 227
223 499 495 l495 495 -495 495 c-272 272 -496 495 -500 495 -3 0 -5 -143 -4
-317 0 -175 -1 -323 -3 -329 -2 -9 -358 -12 -1371 -12 l-1367 0 969 969 970
970 233 -235 234 -234 0 704 c0 556 -3 704 -12 704 -114 5 -1388 3 -1388 -1 0
-4 104 -110 230 -237 l230 -230 -944 -944 c-519 -518 -955 -953 -969 -966
l-25 -24 0 1369 0 1368 329 0 c181 -1 329 2 329 5 0 6 -985 990 -991 990 -2 0
-226 -222 -496 -493z"/>
</g>
</svg>
